<svg height="1em" style="flex:none;line-height:1" viewBox="0 0 24 24" width="1em" xmlns="http://www.w3.org/2000/svg">
  <title>Claude Monitor</title>
  <defs>
    <linearGradient id="metallicOrange" x1="2" y1="3" x2="22" y2="21" gradientUnits="userSpaceOnUse">
      <stop offset="0" stop-color="#FFE2C7"/>
      <stop offset="0.18" stop-color="#FFB680"/>
      <stop offset="0.42" stop-color="#E88456"/>
      <stop offset="0.55" stop-color="#D97757"/>
      <stop offset="0.72" stop-color="#B85A3D"/>
      <stop offset="0.88" stop-color="#8C3A22"/>
      <stop offset="1" stop-color="#5E2410"/>
    </linearGradient>
    <linearGradient id="sheen" x1="12" y1="5" x2="12" y2="14" gradientUnits="userSpaceOnUse">
      <stop offset="0" stop-color="#FFFFFF" stop-opacity="0.55"/>
      <stop offset="0.45" stop-color="#FFFFFF" stop-opacity="0.18"/>
      <stop offset="1" stop-color="#FFFFFF" stop-opacity="0"/>
    </linearGradient>
    <radialGradient id="eyeGlow" cx="0.5" cy="0.5" r="0.5">
      <stop offset="0" stop-color="#FFF6E5"/>
      <stop offset="0.55" stop-color="#FFC98A"/>
      <stop offset="1" stop-color="#D97757"/>
    </radialGradient>
    <linearGradient id="pulse" x1="6" y1="14.5" x2="18" y2="14.5" gradientUnits="userSpaceOnUse">
      <stop offset="0" stop-color="#FFD9B0" stop-opacity="0"/>
      <stop offset="0.5" stop-color="#FFE8C9" stop-opacity="0.9"/>
      <stop offset="1" stop-color="#FFD9B0" stop-opacity="0"/>
    </linearGradient>
  </defs>
  <path clip-rule="evenodd" d="M20.998 10.949H24v3.102h-3v3.028h-1.487V20H18v-2.921h-1.487V20H15v-2.921H9V20H7.488v-2.921H6V20H4.487v-2.921H3V14.05H0V10.95h3V5h17.998v5.949zM6 10.949h1.488V8.102H6v2.847zm10.51 0H18V8.102h-1.49v2.847z" fill="url(#metallicOrange)" fill-rule="evenodd"/>
  <path d="M3 5h17.998v9H3z" fill="url(#sheen)"/>
  <rect x="6" y="8.102" width="1.488" height="2.847" fill="url(#eyeGlow)"/>
  <rect x="16.51" y="8.102" width="1.49" height="2.847" fill="url(#eyeGlow)"/>
  <path d="M9 14.05h6v1.2H9z" fill="url(#pulse)" opacity="0.85"/>
</svg>
